<svg width="11" height="12" viewBox="0 0 11 12" fill="none" xmlns="http://www.w3.org/2000/svg">
<path d="M11 10.8V2.4C11 1.7382 10.4518 1.2 9.77778 1.2H8.55556V0H7.33333V1.2H3.66667V0H2.44444V1.2H1.22222C0.548167 1.2 0 1.7382 0 2.4V10.8C0 11.4618 0.548167 12 1.22222 12H9.77778C10.4518 12 11 11.4618 11 10.8ZM3.66667 9.6H2.44444V8.4H3.66667V9.6ZM3.66667 7.2H2.44444V6H3.66667V7.2ZM6.11111 9.6H4.88889V8.4H6.11111V9.6ZM6.11111 7.2H4.88889V6H6.11111V7.2ZM8.55556 9.6H7.33333V8.4H8.55556V9.6ZM8.55556 7.2H7.33333V6H8.55556V7.2ZM9.77778 4.2H1.22222V3H9.77778V4.2Z" fill="#B31312"/>
</svg>
